<svg xmlns="http://www.w3.org/2000/svg" viewBox="0 0 114 89.4"><defs><style>.cls-1{fill:none;stroke:#e6e6e6;stroke-linecap:round;stroke-linejoin:round;stroke-width:2px;}.cls-2{font-size:18px;fill:#e6e6e6;font-family:Roboto-Light, Roboto;}</style></defs><title>bedroom</title><g id="Layer_2" data-name="Layer 2"><g id="servicesicons"><path class="cls-1" d="M76.41,18.72H37.34c-4.35,0-8.27,3.2-8.27,7.55V37.61c0,.52.81,1.18,1.34,1.18H83.34c.52,0,.72-.65.72-1.18V26.27A7.41,7.41,0,0,0,76.41,18.72Z"/><path class="cls-1" d="M84.06,29a1,1,0,0,0-.95-.95H30a1,1,0,0,0-.95.95v8.79a1,1,0,0,0,.95.95h53.1a1,1,0,0,0,.95-.95Z"/><path class="cls-1" d="M79.37,15.85V1.69c0-.52-.23-.69-.75-.69H35.14c-.52,0-1.11.17-1.11.69V15.85"/><line class="cls-1" x1="29.07" y1="33.84" x2="29.07" y2="43.22"/><line class="cls-1" x1="84.06" y1="33.84" x2="84.06" y2="43.22"/><path class="cls-1" d="M69.61,15.83a27.9,27.9,0,0,1,.5-4.81.79.79,0,0,0-.75-.79,26.54,26.54,0,0,1-4.64.48,29.65,29.65,0,0,1-4.89-.51.75.75,0,0,0-.75.75,26.89,26.89,0,0,1,.5,4.89"/><path class="cls-1" d="M54.18,15.83a27.92,27.92,0,0,1,.5-4.81.79.79,0,0,0-.75-.79,26.54,26.54,0,0,1-4.64.48,29.65,29.65,0,0,1-4.89-.51.75.75,0,0,0-.75.75,26.92,26.92,0,0,1,.5,4.89"/></g><g id="Layer_6_copy" data-name="Layer 6 copy"><text class="cls-2" transform="translate(11.32 71.58)">Bed Rooms</text></g></g></svg>