<svg xmlns="http://www.w3.org/2000/svg" viewBox="0 0 114 89.66"><defs><style>.cls-1{fill:none;stroke-linecap:round;stroke-linejoin:round;stroke-width:2px;}.cls-1,.cls-2{stroke:#e6e6e6;}.cls-2{fill:#fff;stroke-miterlimit:10;}.cls-3{font-size:18px;fill:#e6e6e6;font-family:Roboto-Light, Roboto;}.cls-4{letter-spacing:-0.01em;}</style></defs><title>geyser</title><g id="Layer_2" data-name="Layer 2"><g id="servicesicons"><path class="cls-1" d="M77.94,10.8l-5,26.46A8.27,8.27,0,0,1,64.81,44H48.65a8.27,8.27,0,0,1-8.12-6.73l-5-26.46A8.27,8.27,0,0,1,43.64,1H69.81A8.27,8.27,0,0,1,77.94,10.8Z"/><path class="cls-1" d="M64.94,1V17.29a8.21,8.21,0,1,1-16.42,0V1Z"/><circle class="cls-1" cx="63.37" cy="34.62" r="3.13"/><circle class="cls-1" cx="50.08" cy="34.62" r="3.13"/><rect class="cls-1" x="54.25" y="3.87" width="4.95" height="7.56"/><line class="cls-1" x1="56.6" y1="15.85" x2="56.6" y2="19.76"/><circle class="cls-2" cx="42.26" cy="9.86" r="1.36"/></g><g id="Layer_6_copy" data-name="Layer 6 copy"><text class="cls-3" transform="translate(29.75 71.84)">G<tspan class="cls-4" x="12.3" y="0">e</tspan><tspan x="21.49" y="0">yser</tspan></text></g></g></svg>