<svg xmlns="http://www.w3.org/2000/svg" viewBox="0 0 114 89.16"><defs><style>.cls-1,.cls-2{fill:#e6e6e6;}.cls-1{stroke:#e6e6e6;stroke-miterlimit:10;}.cls-2{font-size:18px;font-family:Roboto-Light, Roboto;}</style></defs><title>kitchen</title><g id="Layer_2" data-name="Layer 2"><g id="servicesicons"><g id="Expanded"><path class="cls-1" d="M63.23,43.24a.89.89,0,0,1-.89-.89v-41a.89.89,0,1,1,1.78,0v41A.89.89,0,0,1,63.23,43.24Z"/><path class="cls-1" d="M68.58,28.1H63.23a.89.89,0,0,1,0-1.78h4.45c-.12-15-3.19-23.74-4.46-24a.88.88,0,0,1-.88-.89.9.9,0,0,1,.9-.89c3.73,0,6.23,13.81,6.23,26.71A.89.89,0,0,1,68.58,28.1Z"/><path class="cls-1" d="M50.77,16.53a6.24,6.24,0,0,1-6.23-6.23V1.39a.89.89,0,0,1,1.78,0v8.9a4.45,4.45,0,1,0,8.9,0V1.39a.89.89,0,1,1,1.78,0v8.9A6.24,6.24,0,0,1,50.77,16.53Z"/><path class="cls-1" d="M50.77,43.24a.89.89,0,0,1-.89-.89v-41a.89.89,0,1,1,1.78,0v41A.89.89,0,0,1,50.77,43.24Z"/></g></g><g id="Layer_6_copy" data-name="Layer 6 copy"><text class="cls-2" transform="translate(4.38 71.34)">Open Kitchen</text></g></g></svg>