<svg xmlns="http://www.w3.org/2000/svg" viewBox="0 0 424.08 413"><defs><style>.cls-1{fill:#f9f9f9;}.cls-2{font-size:54.27px;fill:#e2e2e2;font-family:Roboto-Thin, Roboto;letter-spacing:0.34em;}.cls-3{letter-spacing:0.3em;}.cls-4{letter-spacing:0.29em;}</style></defs><title>logo_head_1</title><g id="Layer_2" data-name="Layer 2"><g id="naroda_logo" data-name="naroda logo"><path class="cls-1" d="M211.6,42.38c.07,0,.12,0,.19,0s.12,0,.19,0a5.46,5.46,0,1,0,0-10.92c-.07,0-.12,0-.19,0s-.12,0-.19,0a5.46,5.46,0,1,0,0,10.92Zm-4-5.46a4.21,4.21,0,1,1,4.21,4.36A4.39,4.39,0,0,1,207.58,36.92Z"/><path class="cls-1" d="M251.58,38.29l0,0a20.32,20.32,0,0,0,14.89,6.9h.28c4,0,9.81-1.31,15.09-7.24-.47,8.12,2.85,13.18,5.75,16A20.26,20.26,0,0,0,303,59.64h0C301.79,71,298.4,78.72,283.8,92.08l.72.78c14.84-13.59,18.36-21.76,19.64-33.34,11.57-1.28,19.75-4.8,33.33-19.63l-.78-.72c-13.35,14.59-21,18-32.44,19.27v0A20.38,20.38,0,0,0,298.62,43c-2.85-2.93-8-6.32-16.25-5.74h-.17l-.14-.15c-5.33-6.11-11.2-7.43-15.27-7.43h-.28a20.33,20.33,0,0,0-14.89,6.91l0,0c-7.15-9-10.19-16.8-9.32-36.57l-1.05,0c-.89,20.1,2.41,28.37,9.68,37.45-7.27,9.09-10.57,17.36-9.68,37.45l1.05,0C241.39,55.1,244.43,47.26,251.58,38.29Zm46.27,5.43a19.2,19.2,0,0,1,5.35,14.58,2.39,2.39,0,0,1,0,.26l-.25,0a19.18,19.18,0,0,1-14.57-5.35c-2.72-2.64-5.84-7.36-5.46-15C290.51,37.89,295.23,41,297.86,43.73Zm-45.43-6.47a19.23,19.23,0,0,1,14.09-6.52h.26c3.77,0,9.18,1.21,14.17,6.72-5,5.51-10.4,6.72-14.17,6.72h-.26a19.21,19.21,0,0,1-14.09-6.52l-.17-.2Z"/><path class="cls-1" d="M336,83a1.62,1.62,0,0,0-.11-.16A5.38,5.38,0,0,0,332,81.2a5.46,5.46,0,0,0-3.86,9.32c.06,0,.12.07.17.11a1.45,1.45,0,0,0,.11.16,5.45,5.45,0,0,0,7.72,0,5.47,5.47,0,0,0,0-7.72C336.12,83,336.06,83,336,83Zm-6.81.86a4.22,4.22,0,1,1,6,6,4.5,4.5,0,0,1-6.07.1A4.39,4.39,0,0,1,329.2,83.82Z"/><path class="cls-1" d="M376,120.36a20.29,20.29,0,0,0-15.42-5.65h0c1.29-11.4,4.68-19.09,19.28-32.44l-.72-.78c-14.83,13.59-18.36,21.76-19.64,33.34-11.56,1.27-19.74,4.78-33.33,19.63l.78.71c13.36-14.59,21-18,32.45-19.27a0,0,0,0,0,0,0A20.36,20.36,0,0,0,365,131.35a19.49,19.49,0,0,0,14.46,5.81c.58,0,1.18,0,1.79-.06l.46,0,0-.46C382.29,128.33,378.92,123.21,376,120.36Zm-10.24,10.26A19.21,19.21,0,0,1,360.4,116c0-.09,0-.17,0-.25l.25,0a19.23,19.23,0,0,1,14.58,5.35c2.71,2.64,5.83,7.36,5.45,15C373.08,136.46,368.38,133.33,365.75,130.62Z"/><path class="cls-1" d="M375.8,293.32c2.93-2.85,6.3-8,5.75-16.25l0-.46-.46,0c-8.28-.59-13.4,2.81-16.25,5.75a20.31,20.31,0,0,0-5.64,15.41v0c-11.39-1.29-19.09-4.68-32.44-19.27l-.78.71c13.57,14.84,21.76,18.36,33.33,19.63,1.28,11.57,4.79,19.75,19.64,33.34l.71-.78c-14.58-13.36-18-21-19.27-32.45h0A20.39,20.39,0,0,0,375.8,293.32Zm-15.57,4.58a2.39,2.39,0,0,0,0-.26,19.24,19.24,0,0,1,5.35-14.57c2.64-2.72,7.34-5.82,15-5.45.38,7.59-2.74,12.31-5.44,15a19.26,19.26,0,0,1-14.58,5.36Z"/><path class="cls-1" d="M328.27,322.89s-.06.11-.1.16-.12.06-.17.11a5.46,5.46,0,0,0,7.73,7.72,1.13,1.13,0,0,1,.09-.15c0-.05.12-.07.17-.12a5.46,5.46,0,0,0,0-7.72A5.6,5.6,0,0,0,328.27,322.89Zm3.59-.28a4.38,4.38,0,0,1,3.22,7.35,4.48,4.48,0,0,1-6.06-.11,4.16,4.16,0,0,1,2.84-7.24Z"/><path class="cls-1" d="M304,354.16c-1.28-11.57-4.78-19.75-19.63-33.34l-.72.78c14.59,13.37,18,21.05,19.28,32.45h0a20.37,20.37,0,0,0-15.42,5.64,19.62,19.62,0,0,0-5.76,14.6A19.8,19.8,0,0,0,267,367.77a20.35,20.35,0,0,0-14.9,6.91s0,0,0,0c-7.16-9-10.19-16.81-9.32-36.57l-1,0c-.89,20.1,2.4,28.37,9.69,37.46-7.29,9.09-10.58,17.35-9.69,37.46l1-.05c-.87-19.76,2.16-27.6,9.32-36.57,0,0,0,0,0,0a20.34,20.34,0,0,0,14.9,6.91h.27c3.94,0,9.56-1.28,14.75-6.9h.15c.61,0,1.21.06,1.78.06a19.47,19.47,0,0,0,14.46-5.81,20.29,20.29,0,0,0,5.65-15.42v0c11.4,1.28,19.09,4.67,32.44,19.27l.79-.71C323.72,358.94,315.54,355.43,304,354.16Zm-36.69,28.11H267a19.22,19.22,0,0,1-14.09-6.52,2.22,2.22,0,0,1-.16-.2l.16-.2A19.22,19.22,0,0,1,267,368.83h.26c3.77,0,9.17,1.21,14.17,6.72C276.45,381.06,271,382.27,267.28,382.27ZM297.68,370c-2.64,2.71-7.35,5.79-14.93,5.45l0,0c-.37-7.59,2.75-12.3,5.46-14.93a19.27,19.27,0,0,1,14.57-5.36l.26,0a2.14,2.14,0,0,1,0,.25A19.29,19.29,0,0,1,297.68,370Z"/><path class="cls-1" d="M212.48,370.62c-.06,0-.12,0-.19,0s-.12,0-.19,0a5.46,5.46,0,0,0,0,10.92c.07,0,.13,0,.19,0s.13,0,.19,0a5.46,5.46,0,1,0,0-10.92Zm4,5.46a4.21,4.21,0,1,1-4.21-4.37A4.39,4.39,0,0,1,216.5,376.08Z"/><path class="cls-1" d="M182.89,338.09l-1.06,0c.86,19.76-2.17,27.6-9.32,36.57l0,0a20.33,20.33,0,0,0-14.89-6.91c-4.05,0-10,1.17-15.37,7.24.47-8.12-2.85-13.18-5.75-16a20.31,20.31,0,0,0-15.41-5.65h0c1.28-11.39,4.67-19.08,19.28-32.44l-.72-.78c-14.84,13.58-18.36,21.76-19.63,33.34-11.58,1.28-19.76,4.79-33.35,19.63l.79.71c13.35-14.59,21-18,32.44-19.27v0A20.33,20.33,0,0,0,125.47,370a19.49,19.49,0,0,0,14.46,5.81c.57,0,1.17,0,1.78-.06h.18l.13.15c5.34,6.11,11.21,7.43,15.28,7.43h.27a20.38,20.38,0,0,0,14.9-6.91l0,0c7.15,9,10.18,16.81,9.32,36.57l1.06.05c.88-20.1-2.42-28.37-9.69-37.46C180.47,366.46,183.77,358.19,182.89,338.09Zm-56.66,31.18a19.22,19.22,0,0,1-5.36-14.58l0-.26.25,0a19.27,19.27,0,0,1,14.57,5.35c2.71,2.64,5.83,7.36,5.46,15C133.58,375.07,128.87,372,126.24,369.27Zm45.43,6.47a19.22,19.22,0,0,1-14.09,6.52h-.26c-3.77,0-9.18-1.21-14.17-6.72,5-5.51,10.4-6.72,14.17-6.72h.26a19.24,19.24,0,0,1,14.09,6.52l.16.2Z"/><path class="cls-1" d="M88.07,330c.05,0,.06.12.11.16a5.46,5.46,0,1,0,7.71-7.72s-.11-.06-.16-.11-.06-.11-.1-.16a5.46,5.46,0,0,0-7.72,7.72S88,330,88.07,330ZM95,323.11a4.55,4.55,0,0,1,.82,1.25,4.38,4.38,0,0,1-.93,4.82,4.49,4.49,0,0,1-6.07.1A4.38,4.38,0,0,1,92,321.93,4.36,4.36,0,0,1,95,323.11Z"/><path class="cls-1" d="M98,278.55l-.78-.71c-13.36,14.59-21,18-32.44,19.27v0a20.37,20.37,0,0,0-5.65-15.42c-2.85-2.93-8-6.33-16.26-5.75l-.46,0,0,.46c-.55,8.27,2.82,13.4,5.75,16.25a20.33,20.33,0,0,0,15.42,5.65h0c-1.28,11.4-4.67,19.09-19.27,32.45l.72.78c14.83-13.59,18.35-21.76,19.63-33.34C76.21,296.9,84.38,293.39,98,278.55ZM63.7,297c0,.09,0,.17,0,.26l-.26,0a19.17,19.17,0,0,1-14.57-5.35c-2.71-2.64-5.83-7.36-5.45-15,7.61-.37,12.32,2.74,15,5.46A19.24,19.24,0,0,1,63.7,297Z"/><path class="cls-1" d="M48.29,119.68c-2.93,2.85-6.3,8-5.75,16.25l0,.46.46,0c.61,0,1.21.06,1.79.06a19.48,19.48,0,0,0,14.45-5.81,20.33,20.33,0,0,0,5.66-15.41.05.05,0,0,1,0,0c11.4,1.28,19.09,4.68,32.44,19.27l.78-.72c-13.58-14.83-21.76-18.36-33.33-19.63C63.55,102.57,60,94.39,45.19,80.8l-.72.78c14.59,13.36,18,21,19.28,32.45h0A20.44,20.44,0,0,0,48.29,119.68Zm15.56-4.58c0,.09,0,.17,0,.26a19.2,19.2,0,0,1-5.35,14.57c-2.63,2.72-7.37,5.8-15,5.46-.38-7.6,2.74-12.31,5.46-14.95a19.23,19.23,0,0,1,14.56-5.36Z"/><path class="cls-1" d="M92,91.71a5.42,5.42,0,0,0,3.85-1.6,1.71,1.71,0,0,0,.11-.16c.05,0,.11-.06.16-.11a5.46,5.46,0,0,0-7.71-7.72c-.05,0-.06.11-.11.16s-.11.07-.16.12A5.46,5.46,0,0,0,92,91.71Zm.27-1.37A4.33,4.33,0,0,1,89,83a4.33,4.33,0,0,1,6.05.11,4.12,4.12,0,0,1-2.84,7.2Z"/><path class="cls-1" d="M120.12,58.84c1.27,11.57,4.78,19.75,19.63,33.34l.71-.78C125.88,78,122.47,70.35,121.19,59h0a20.32,20.32,0,0,0,15.42-5.65,19.58,19.58,0,0,0,5.77-14.6c5.09,5.29,10.54,6.52,14.39,6.52h.28A20.36,20.36,0,0,0,172,38.32s0,0,0,0c7.15,9,10.18,16.8,9.31,36.57l1.06,0c.88-20.1-2.41-28.37-9.69-37.45C180,28.37,183.26,20.1,182.38,0l-1.06,0c.87,19.77-2.16,27.61-9.31,36.57,0,0,0,0,0,0a20.36,20.36,0,0,0-14.9-6.91c-4,0-9.71,1.15-15,6.9h-.14c-8.3-.6-13.4,2.82-16.25,5.75A20.37,20.37,0,0,0,120,57.73a.05.05,0,0,0,0,0c-11.4-1.28-19.09-4.67-32.45-19.27l-.77.72C100.38,54.05,108.55,57.57,120.12,58.84Zm36.69-28.11h.25a19.25,19.25,0,0,1,14.1,6.52l.17.2-.17.2a19.24,19.24,0,0,1-14.09,6.52c-3.73,0-9.33-1.08-14.43-6.72C147.63,31.94,153,30.73,156.81,30.73ZM126.41,43c2.64-2.72,7.31-5.82,14.94-5.46l0,0c.37,7.58-2.74,12.3-5.46,14.93a19.16,19.16,0,0,1-14.57,5.35l-.25,0a2.14,2.14,0,0,0,0-.25A19.23,19.23,0,0,1,126.41,43Z"/><text class="cls-2" transform="translate(0 222.36)">HOMES<tspan class="cls-3" x="276.05" y="0">T</tspan><tspan class="cls-4" x="324.85" y="0">A</tspan><tspan x="373.22" y="0">Y</tspan></text></g></g></svg>