<svg xmlns="http://www.w3.org/2000/svg" viewBox="0 0 114 87.04"><defs><style>.cls-1,.cls-2{fill:none;stroke:#e6e6e6;}.cls-1{stroke-miterlimit:10;}.cls-2{stroke-linecap:round;stroke-linejoin:round;stroke-width:2px;}.cls-3{font-size:18px;fill:#e6e6e6;font-family:Roboto-Light, Roboto;}.cls-4{letter-spacing:-0.01em;}</style></defs><title>reading</title><g id="Layer_2" data-name="Layer 2"><g id="servicesicons"><path class="cls-1" d="M29.78,6.61V38A34.3,34.3,0,0,1,45,34.65c9.13,0,9,1.21,9,1.21S53.42,38.5,57,38.5h.55c3.52,0,3-2.64,3-2.64s0-1.32,9-1.32A34,34,0,0,1,84.76,38V6.61"/><path class="cls-1" d="M57.27,4.08a25.24,25.24,0,0,0-24.19,0V33.22s10.12-6.38,24.19,0c14.08-6.38,24.19,0,24.19,0V4.08A25.59,25.59,0,0,0,57.27,4.08Z"/><path class="cls-2" d="M57.27,4.08a25.24,25.24,0,0,0-24.19,0V33.22s10.12-6.38,24.19,0c14.08-6.38,24.19,0,24.19,0V4.08A25.59,25.59,0,0,0,57.27,4.08Z"/><path class="cls-2" d="M29.78,6.61V38A34.3,34.3,0,0,1,45,34.65c9.13,0,9,1.21,9,1.21S53.42,38.5,57,38.5h.55c3.52,0,3-2.64,3-2.64s0-1.32,9-1.32A34,34,0,0,1,84.76,38V6.61"/><line class="cls-2" x1="57.27" y1="9.91" x2="57.27" y2="26.4"/></g><g id="Layer_6_copy" data-name="Layer 6 copy"><text class="cls-3" transform="translate(4.64 69.22)">Reading A<tspan class="cls-4" x="79.89" y="0">r</tspan><tspan x="85.78" y="0">ea</tspan></text></g></g></svg>